<svg xmlns="http://www.w3.org/2000/svg" xmlns:xlink="http://www.w3.org/1999/xlink" width="500" zoomAndPan="magnify" viewBox="0 0 375 374.999991" height="500" preserveAspectRatio="xMidYMid meet" version="1.0"><defs><g/></defs><g fill="#00bf63" fill-opacity="1"><g transform="translate(131.486597, 203.934059)"><g><path d="M 53.203125 -21.421875 L 53.203125 -6.21875 C 53.203125 -5.019531 53.257812 -4.054688 53.375 -3.328125 C 53.5 -2.609375 53.65625 -2.039062 53.84375 -1.625 C 54.039062 -1.21875 54.234375 -0.953125 54.421875 -0.828125 C 54.617188 -0.710938 54.765625 -0.65625 54.859375 -0.65625 L 54.859375 0 L 46.46875 0 L 46.46875 -0.65625 C 46.5625 -0.65625 46.703125 -0.710938 46.890625 -0.828125 C 47.085938 -0.953125 47.269531 -1.21875 47.4375 -1.625 C 47.601562 -2.039062 47.757812 -2.609375 47.90625 -3.328125 C 48.050781 -4.054688 48.125 -5.019531 48.125 -6.21875 L 48.125 -21.421875 C 48.125 -22.285156 48.078125 -23.332031 47.984375 -24.5625 C 47.890625 -25.800781 47.6875 -27.007812 47.375 -28.1875 C 47.0625 -29.375 46.601562 -30.445312 46 -31.40625 C 45.394531 -32.375 44.582031 -33.023438 43.5625 -33.359375 C 42.550781 -33.703125 41.5625 -33.691406 40.59375 -33.328125 C 39.632812 -32.960938 38.753906 -32.414062 37.953125 -31.6875 C 37.160156 -30.96875 36.453125 -30.148438 35.828125 -29.234375 C 35.203125 -28.316406 34.695312 -27.453125 34.3125 -26.640625 C 33.25 -24.316406 32.398438 -21.476562 31.765625 -18.125 C 31.140625 -14.769531 30.828125 -10.800781 30.828125 -6.21875 C 30.828125 -5.019531 30.882812 -4.054688 31 -3.328125 C 31.125 -2.609375 31.28125 -2.039062 31.46875 -1.625 C 31.664062 -1.21875 31.863281 -0.953125 32.0625 -0.828125 C 32.257812 -0.710938 32.40625 -0.65625 32.5 -0.65625 L 32.5 0 L 24.09375 0 L 24.09375 -0.65625 C 24.195312 -0.65625 24.34375 -0.710938 24.53125 -0.828125 C 24.726562 -0.953125 24.910156 -1.21875 25.078125 -1.625 C 25.242188 -2.039062 25.398438 -2.609375 25.546875 -3.328125 C 25.691406 -4.054688 25.765625 -5.019531 25.765625 -6.21875 L 25.765625 -21.421875 C 25.765625 -22.285156 25.710938 -23.332031 25.609375 -24.5625 C 25.515625 -25.800781 25.3125 -27.007812 25 -28.1875 C 24.6875 -29.375 24.226562 -30.445312 23.625 -31.40625 C 23.019531 -32.375 22.210938 -33.023438 21.203125 -33.359375 C 20.191406 -33.703125 19.203125 -33.691406 18.234375 -33.328125 C 17.273438 -32.960938 16.394531 -32.414062 15.59375 -31.6875 C 14.800781 -30.96875 14.085938 -30.148438 13.453125 -29.234375 C 12.828125 -28.316406 12.320312 -27.453125 11.9375 -26.640625 C 10.875 -24.316406 10.03125 -21.476562 9.40625 -18.125 C 8.78125 -14.769531 8.46875 -10.800781 8.46875 -6.21875 C 8.46875 -5.019531 8.523438 -4.054688 8.640625 -3.328125 C 8.765625 -2.609375 8.921875 -2.039062 9.109375 -1.625 C 9.304688 -1.21875 9.5 -0.953125 9.6875 -0.828125 C 9.882812 -0.710938 10.03125 -0.65625 10.125 -0.65625 L 10.125 0 L 1.8125 0 L 1.8125 -0.65625 C 1.90625 -0.65625 2.046875 -0.710938 2.234375 -0.828125 C 2.429688 -0.953125 2.613281 -1.21875 2.78125 -1.625 C 2.957031 -2.039062 3.113281 -2.609375 3.25 -3.328125 C 3.394531 -4.054688 3.46875 -5.019531 3.46875 -6.21875 L 3.46875 -28.65625 C 3.46875 -29.8125 3.394531 -30.765625 3.25 -31.515625 C 3.113281 -32.265625 2.957031 -32.832031 2.78125 -33.21875 C 2.613281 -33.601562 2.429688 -33.867188 2.234375 -34.015625 C 2.046875 -34.160156 1.90625 -34.234375 1.8125 -34.234375 L 1.8125 -34.890625 L 8.46875 -34.890625 L 8.46875 -16.140625 C 8.800781 -18.359375 9.207031 -20.359375 9.6875 -22.140625 C 10.175781 -23.929688 10.734375 -25.523438 11.359375 -26.921875 C 11.847656 -27.929688 12.40625 -28.921875 13.03125 -29.890625 C 13.65625 -30.859375 14.390625 -31.738281 15.234375 -32.53125 C 16.078125 -33.332031 16.992188 -33.972656 17.984375 -34.453125 C 18.972656 -34.929688 20.070312 -35.171875 21.28125 -35.171875 C 23.257812 -35.171875 24.875 -34.757812 26.125 -33.9375 C 27.382812 -33.125 28.363281 -32.066406 29.0625 -30.765625 C 29.757812 -29.460938 30.226562 -27.988281 30.46875 -26.34375 C 30.707031 -24.707031 30.828125 -23.066406 30.828125 -21.421875 L 30.828125 -16.140625 C 31.117188 -18.359375 31.503906 -20.359375 31.984375 -22.140625 C 32.472656 -23.929688 33.054688 -25.523438 33.734375 -26.921875 C 34.160156 -27.929688 34.695312 -28.921875 35.34375 -29.890625 C 36 -30.859375 36.738281 -31.738281 37.5625 -32.53125 C 38.382812 -33.332031 39.300781 -33.972656 40.3125 -34.453125 C 41.320312 -34.929688 42.429688 -35.171875 43.640625 -35.171875 C 45.617188 -35.171875 47.222656 -34.757812 48.453125 -33.9375 C 49.679688 -33.125 50.644531 -32.066406 51.34375 -30.765625 C 52.050781 -29.460938 52.535156 -27.988281 52.796875 -26.34375 C 53.066406 -24.707031 53.203125 -23.066406 53.203125 -21.421875 Z M 53.203125 -21.421875 "/></g></g></g><g fill="#00bf63" fill-opacity="1"><g transform="translate(186.916494, 203.934059)"><g><path d="M 1.8125 -32.28125 L 8.609375 -34.890625 L 8.609375 -6.21875 C 8.609375 -5.019531 8.664062 -4.054688 8.78125 -3.328125 C 8.90625 -2.609375 9.0625 -2.039062 9.25 -1.625 C 9.445312 -1.21875 9.640625 -0.953125 9.828125 -0.828125 C 10.023438 -0.710938 10.175781 -0.65625 10.28125 -0.65625 L 10.28125 0 L 1.875 0 L 1.875 -0.65625 C 2.019531 -0.65625 2.1875 -0.710938 2.375 -0.828125 C 2.570312 -0.953125 2.753906 -1.21875 2.921875 -1.625 C 3.097656 -2.039062 3.257812 -2.609375 3.40625 -3.328125 C 3.550781 -4.054688 3.625 -5.019531 3.625 -6.21875 L 3.625 -28.59375 C 3.425781 -29.894531 3.15625 -30.738281 2.8125 -31.125 C 2.476562 -31.507812 2.21875 -31.703125 2.03125 -31.703125 Z M 5.578125 -40.75 C 4.609375 -40.75 3.796875 -41.070312 3.140625 -41.71875 C 2.492188 -42.375 2.171875 -43.1875 2.171875 -44.15625 C 2.171875 -45.113281 2.492188 -45.914062 3.140625 -46.5625 C 3.796875 -47.21875 4.609375 -47.546875 5.578125 -47.546875 C 6.535156 -47.546875 7.335938 -47.21875 7.984375 -46.5625 C 8.640625 -45.914062 8.96875 -45.113281 8.96875 -44.15625 C 8.96875 -43.1875 8.640625 -42.375 7.984375 -41.71875 C 7.335938 -41.070312 6.535156 -40.75 5.578125 -40.75 Z M 5.578125 -40.75 "/></g></g></g><g fill="#00bf63" fill-opacity="1"><g transform="translate(197.770645, 203.934059)"><g><path d="M 1.8125 -34.890625 L 8.46875 -34.890625 L 8.46875 -16.140625 C 8.757812 -18.359375 9.15625 -20.359375 9.65625 -22.140625 C 10.164062 -23.929688 10.734375 -25.523438 11.359375 -26.921875 C 11.847656 -27.929688 12.40625 -28.921875 13.03125 -29.890625 C 13.65625 -30.859375 14.390625 -31.738281 15.234375 -32.53125 C 16.078125 -33.332031 16.992188 -33.972656 17.984375 -34.453125 C 18.972656 -34.929688 20.070312 -35.171875 21.28125 -35.171875 C 23.257812 -35.171875 24.863281 -34.757812 26.09375 -33.9375 C 27.320312 -33.125 28.285156 -32.066406 28.984375 -30.765625 C 29.679688 -29.460938 30.160156 -27.988281 30.421875 -26.34375 C 30.691406 -24.707031 30.828125 -23.066406 30.828125 -21.421875 L 30.828125 -6.21875 C 30.828125 -5.019531 30.882812 -4.054688 31 -3.328125 C 31.125 -2.609375 31.28125 -2.039062 31.46875 -1.625 C 31.664062 -1.21875 31.863281 -0.953125 32.0625 -0.828125 C 32.257812 -0.710938 32.40625 -0.65625 32.5 -0.65625 L 32.5 0 L 24.09375 0 L 24.09375 -0.65625 C 24.195312 -0.65625 24.34375 -0.710938 24.53125 -0.828125 C 24.726562 -0.953125 24.910156 -1.21875 25.078125 -1.625 C 25.242188 -2.039062 25.398438 -2.609375 25.546875 -3.328125 C 25.691406 -4.054688 25.765625 -5.019531 25.765625 -6.21875 L 25.765625 -21.421875 C 25.765625 -22.285156 25.710938 -23.332031 25.609375 -24.5625 C 25.515625 -25.800781 25.3125 -27.007812 25 -28.1875 C 24.6875 -29.375 24.226562 -30.445312 23.625 -31.40625 C 23.019531 -32.375 22.210938 -33.023438 21.203125 -33.359375 C 20.191406 -33.703125 19.203125 -33.691406 18.234375 -33.328125 C 17.273438 -32.960938 16.394531 -32.414062 15.59375 -31.6875 C 14.800781 -30.96875 14.085938 -30.148438 13.453125 -29.234375 C 12.828125 -28.316406 12.320312 -27.453125 11.9375 -26.640625 C 10.875 -24.316406 10.03125 -21.476562 9.40625 -18.125 C 8.78125 -14.769531 8.46875 -10.800781 8.46875 -6.21875 C 8.46875 -5.019531 8.523438 -4.054688 8.640625 -3.328125 C 8.765625 -2.609375 8.921875 -2.039062 9.109375 -1.625 C 9.304688 -1.21875 9.5 -0.953125 9.6875 -0.828125 C 9.882812 -0.710938 10.03125 -0.65625 10.125 -0.65625 L 10.125 0 L 1.8125 0 L 1.8125 -0.65625 C 1.90625 -0.65625 2.046875 -0.710938 2.234375 -0.828125 C 2.429688 -0.953125 2.613281 -1.21875 2.78125 -1.625 C 2.957031 -2.039062 3.113281 -2.609375 3.25 -3.328125 C 3.394531 -4.054688 3.46875 -5.019531 3.46875 -6.21875 L 3.46875 -28.65625 C 3.46875 -29.8125 3.394531 -30.765625 3.25 -31.515625 C 3.113281 -32.265625 2.957031 -32.832031 2.78125 -33.21875 C 2.613281 -33.601562 2.429688 -33.867188 2.234375 -34.015625 C 2.046875 -34.160156 1.90625 -34.234375 1.8125 -34.234375 Z M 1.8125 -34.890625 "/></g></g></g><g fill="#00bf63" fill-opacity="1"><g transform="translate(230.840316, 203.934059)"><g><path d="M 31.1875 -19.546875 C 30.851562 -17.128906 30.375 -14.921875 29.75 -12.921875 C 29.125 -10.921875 28.398438 -9.144531 27.578125 -7.59375 C 26.035156 -4.800781 24.273438 -2.753906 22.296875 -1.453125 L 21.421875 -0.9375 C 20.171875 -0.21875 18.84375 0.234375 17.4375 0.421875 C 16.039062 0.617188 14.644531 0.597656 13.25 0.359375 C 10.738281 -0.078125 8.671875 -0.894531 7.046875 -2.09375 C 5.429688 -3.300781 4.203125 -4.75 3.359375 -6.4375 C 2.515625 -8.125 2.019531 -9.976562 1.875 -12 C 1.738281 -14.03125 1.910156 -16.070312 2.390625 -18.125 C 2.867188 -20.175781 3.613281 -22.164062 4.625 -24.09375 C 5.644531 -26.03125 6.878906 -27.742188 8.328125 -29.234375 C 10.109375 -31.066406 12.203125 -32.550781 14.609375 -33.6875 C 17.023438 -34.820312 19.679688 -35.363281 22.578125 -35.3125 C 23.835938 -35.363281 25.175781 -35.253906 26.59375 -34.984375 C 28.019531 -34.722656 29.550781 -34.253906 31.1875 -33.578125 L 31.1875 -46.109375 C 31 -47.359375 30.75 -48.175781 30.4375 -48.5625 C 30.125 -48.945312 29.867188 -49.140625 29.671875 -49.140625 L 29.453125 -49.796875 L 36.265625 -52.328125 L 36.265625 -6.296875 C 36.265625 -5.085938 36.320312 -4.117188 36.4375 -3.390625 C 36.5625 -2.671875 36.71875 -2.101562 36.90625 -1.6875 C 37.101562 -1.28125 37.296875 -1.015625 37.484375 -0.890625 C 37.679688 -0.773438 37.828125 -0.71875 37.921875 -0.71875 L 37.921875 -0.078125 L 31.1875 -0.078125 Z M 31.1875 -33 C 28.15625 -34.207031 25.265625 -34.8125 22.515625 -34.8125 C 19.953125 -34.71875 17.738281 -34.039062 15.875 -32.78125 C 14.019531 -31.53125 12.46875 -29.816406 11.21875 -27.640625 C 10.351562 -26.054688 9.664062 -24.140625 9.15625 -21.890625 C 8.644531 -19.648438 8.390625 -17.367188 8.390625 -15.046875 C 8.390625 -12.734375 8.703125 -10.515625 9.328125 -8.390625 C 9.960938 -6.273438 10.953125 -4.539062 12.296875 -3.1875 C 13.554688 -1.925781 14.929688 -1.113281 16.421875 -0.75 C 17.921875 -0.394531 19.492188 -0.628906 21.140625 -1.453125 C 22.097656 -1.984375 22.953125 -2.617188 23.703125 -3.359375 C 24.453125 -4.109375 25.140625 -4.96875 25.765625 -5.9375 C 27.015625 -7.71875 28.015625 -9.71875 28.765625 -11.9375 C 29.515625 -14.15625 30.082031 -16.398438 30.46875 -18.671875 C 30.664062 -19.640625 30.8125 -20.675781 30.90625 -21.78125 C 31.050781 -23.28125 31.125 -24.875 31.125 -26.5625 L 31.1875 -26.5625 Z M 31.1875 -33 "/></g></g></g><g fill="#292929" fill-opacity="1"><g transform="translate(155.435554, 220.720685)"><g><path d="M 4.921875 -5.875 C 5.046875 -5.875 5.144531 -5.832031 5.21875 -5.75 C 5.300781 -5.675781 5.34375 -5.582031 5.34375 -5.46875 L 5.34375 -0.40625 C 5.34375 -0.289062 5.300781 -0.191406 5.21875 -0.109375 C 5.132812 -0.0351562 5.035156 0 4.921875 0 C 4.804688 0 4.707031 -0.0351562 4.625 -0.109375 C 4.539062 -0.191406 4.5 -0.289062 4.5 -0.40625 L 4.5 -2.578125 L 1.53125 -2.578125 L 1.53125 -0.40625 C 1.53125 -0.289062 1.488281 -0.191406 1.40625 -0.109375 C 1.320312 -0.0351562 1.222656 0 1.109375 0 C 0.984375 0 0.882812 -0.0351562 0.8125 -0.109375 C 0.738281 -0.191406 0.703125 -0.289062 0.703125 -0.40625 L 0.703125 -5.46875 C 0.703125 -5.582031 0.738281 -5.675781 0.8125 -5.75 C 0.894531 -5.832031 0.992188 -5.875 1.109375 -5.875 C 1.222656 -5.875 1.320312 -5.832031 1.40625 -5.75 C 1.488281 -5.675781 1.53125 -5.582031 1.53125 -5.46875 L 1.53125 -3.359375 L 4.5 -3.359375 L 4.5 -5.46875 C 4.5 -5.582031 4.539062 -5.675781 4.625 -5.75 C 4.707031 -5.832031 4.804688 -5.875 4.921875 -5.875 Z M 4.921875 -5.875 "/></g></g></g><g fill="#292929" fill-opacity="1"><g transform="translate(163.863543, 220.720685)"><g><path d="M 4.015625 -0.765625 C 4.140625 -0.765625 4.238281 -0.722656 4.3125 -0.640625 C 4.382812 -0.566406 4.421875 -0.476562 4.421875 -0.375 C 4.421875 -0.257812 4.382812 -0.164062 4.3125 -0.09375 C 4.238281 -0.03125 4.140625 0 4.015625 0 L 1.09375 0 C 0.988281 0 0.894531 -0.0351562 0.8125 -0.109375 C 0.738281 -0.191406 0.703125 -0.289062 0.703125 -0.40625 L 0.703125 -5.46875 C 0.703125 -5.582031 0.738281 -5.675781 0.8125 -5.75 C 0.894531 -5.832031 0.988281 -5.875 1.09375 -5.875 L 4.015625 -5.875 C 4.140625 -5.875 4.238281 -5.835938 4.3125 -5.765625 C 4.382812 -5.691406 4.421875 -5.597656 4.421875 -5.484375 C 4.421875 -5.367188 4.382812 -5.273438 4.3125 -5.203125 C 4.238281 -5.128906 4.140625 -5.09375 4.015625 -5.09375 L 1.53125 -5.09375 L 1.53125 -3.390625 L 3.640625 -3.390625 C 3.753906 -3.390625 3.847656 -3.351562 3.921875 -3.28125 C 4.003906 -3.207031 4.046875 -3.113281 4.046875 -3 C 4.046875 -2.882812 4.003906 -2.789062 3.921875 -2.71875 C 3.847656 -2.65625 3.753906 -2.625 3.640625 -2.625 L 1.53125 -2.625 L 1.53125 -0.765625 Z M 4.015625 -0.765625 "/></g></g></g><g fill="#292929" fill-opacity="1"><g transform="translate(171.042366, 220.720685)"><g><path d="M 5.203125 -0.515625 C 5.222656 -0.460938 5.234375 -0.410156 5.234375 -0.359375 C 5.234375 -0.242188 5.195312 -0.148438 5.125 -0.078125 C 5.050781 -0.00390625 4.960938 0.03125 4.859375 0.03125 C 4.773438 0.03125 4.703125 0.00390625 4.640625 -0.046875 C 4.578125 -0.0976562 4.523438 -0.164062 4.484375 -0.25 L 3.96875 -1.484375 L 1.375 -1.484375 L 0.859375 -0.234375 C 0.835938 -0.148438 0.789062 -0.0820312 0.71875 -0.03125 C 0.65625 0.0078125 0.585938 0.03125 0.515625 0.03125 C 0.390625 0.03125 0.296875 0 0.234375 -0.0625 C 0.179688 -0.125 0.15625 -0.207031 0.15625 -0.3125 C 0.15625 -0.34375 0.160156 -0.390625 0.171875 -0.453125 L 2.3125 -5.640625 C 2.34375 -5.722656 2.394531 -5.789062 2.46875 -5.84375 C 2.539062 -5.894531 2.617188 -5.914062 2.703125 -5.90625 C 2.796875 -5.90625 2.875 -5.878906 2.9375 -5.828125 C 3 -5.785156 3.046875 -5.722656 3.078125 -5.640625 Z M 1.6875 -2.234375 L 3.65625 -2.234375 L 2.671875 -4.59375 Z M 1.6875 -2.234375 "/></g></g></g><g fill="#292929" fill-opacity="1"><g transform="translate(178.824815, 220.720685)"><g><path d="M 4.5 -5.875 C 4.625 -5.875 4.722656 -5.835938 4.796875 -5.765625 C 4.867188 -5.691406 4.90625 -5.597656 4.90625 -5.484375 C 4.90625 -5.367188 4.867188 -5.273438 4.796875 -5.203125 C 4.722656 -5.140625 4.625 -5.109375 4.5 -5.109375 L 3.015625 -5.109375 L 3.015625 -0.40625 C 3.015625 -0.289062 2.972656 -0.191406 2.890625 -0.109375 C 2.804688 -0.0351562 2.703125 0 2.578125 0 C 2.460938 0 2.363281 -0.0351562 2.28125 -0.109375 C 2.195312 -0.191406 2.15625 -0.289062 2.15625 -0.40625 L 2.15625 -5.109375 L 0.671875 -5.109375 C 0.554688 -5.109375 0.457031 -5.140625 0.375 -5.203125 C 0.300781 -5.273438 0.265625 -5.375 0.265625 -5.5 C 0.265625 -5.601562 0.300781 -5.691406 0.375 -5.765625 C 0.457031 -5.835938 0.554688 -5.875 0.671875 -5.875 Z M 4.5 -5.875 "/></g></g></g><g fill="#292929" fill-opacity="1"><g transform="translate(186.397674, 220.720685)"><g><path d="M 4.921875 -5.875 C 5.046875 -5.875 5.144531 -5.832031 5.21875 -5.75 C 5.300781 -5.675781 5.34375 -5.582031 5.34375 -5.46875 L 5.34375 -0.40625 C 5.34375 -0.289062 5.300781 -0.191406 5.21875 -0.109375 C 5.132812 -0.0351562 5.035156 0 4.921875 0 C 4.804688 0 4.707031 -0.0351562 4.625 -0.109375 C 4.539062 -0.191406 4.5 -0.289062 4.5 -0.40625 L 4.5 -2.578125 L 1.53125 -2.578125 L 1.53125 -0.40625 C 1.53125 -0.289062 1.488281 -0.191406 1.40625 -0.109375 C 1.320312 -0.0351562 1.222656 0 1.109375 0 C 0.984375 0 0.882812 -0.0351562 0.8125 -0.109375 C 0.738281 -0.191406 0.703125 -0.289062 0.703125 -0.40625 L 0.703125 -5.46875 C 0.703125 -5.582031 0.738281 -5.675781 0.8125 -5.75 C 0.894531 -5.832031 0.992188 -5.875 1.109375 -5.875 C 1.222656 -5.875 1.320312 -5.832031 1.40625 -5.75 C 1.488281 -5.675781 1.53125 -5.582031 1.53125 -5.46875 L 1.53125 -3.359375 L 4.5 -3.359375 L 4.5 -5.46875 C 4.5 -5.582031 4.539062 -5.675781 4.625 -5.75 C 4.707031 -5.832031 4.804688 -5.875 4.921875 -5.875 Z M 4.921875 -5.875 "/></g></g></g><g fill="#292929" fill-opacity="1"><g transform="translate(194.825663, 220.720685)"><g><path d="M 4.734375 -5.5 C 4.734375 -5.414062 4.707031 -5.332031 4.65625 -5.25 L 2.859375 -2.703125 L 2.859375 -0.40625 C 2.859375 -0.289062 2.816406 -0.191406 2.734375 -0.109375 C 2.660156 -0.0351562 2.570312 0 2.46875 0 C 2.351562 0 2.253906 -0.0351562 2.171875 -0.109375 C 2.097656 -0.191406 2.0625 -0.289062 2.0625 -0.40625 L 2.0625 -2.765625 L 0.265625 -5.1875 C 0.191406 -5.289062 0.15625 -5.394531 0.15625 -5.5 C 0.15625 -5.601562 0.195312 -5.695312 0.28125 -5.78125 C 0.375 -5.863281 0.472656 -5.90625 0.578125 -5.90625 C 0.703125 -5.90625 0.8125 -5.84375 0.90625 -5.71875 L 2.484375 -3.53125 L 4 -5.703125 C 4.09375 -5.835938 4.207031 -5.90625 4.34375 -5.90625 C 4.445312 -5.90625 4.535156 -5.863281 4.609375 -5.78125 C 4.691406 -5.695312 4.734375 -5.601562 4.734375 -5.5 Z M 4.734375 -5.5 "/></g></g></g><g fill="#292929" fill-opacity="1"><g transform="translate(202.096712, 220.720685)"><g><path d="M 4.890625 -5.53125 C 5.015625 -5.457031 5.078125 -5.34375 5.078125 -5.1875 C 5.078125 -5.09375 5.046875 -5.003906 4.984375 -4.921875 C 4.921875 -4.828125 4.828125 -4.78125 4.703125 -4.78125 C 4.628906 -4.78125 4.554688 -4.800781 4.484375 -4.84375 C 4.128906 -5.039062 3.753906 -5.140625 3.359375 -5.140625 C 2.941406 -5.140625 2.570312 -5.046875 2.25 -4.859375 C 1.925781 -4.671875 1.671875 -4.410156 1.484375 -4.078125 C 1.304688 -3.742188 1.21875 -3.363281 1.21875 -2.9375 C 1.21875 -2.46875 1.3125 -2.066406 1.5 -1.734375 C 1.6875 -1.398438 1.941406 -1.144531 2.265625 -0.96875 C 2.585938 -0.789062 2.953125 -0.703125 3.359375 -0.703125 C 3.773438 -0.703125 4.148438 -0.800781 4.484375 -1 C 4.546875 -1.039062 4.617188 -1.0625 4.703125 -1.0625 C 4.828125 -1.0625 4.925781 -1.015625 5 -0.921875 C 5.0625 -0.828125 5.09375 -0.734375 5.09375 -0.640625 C 5.09375 -0.578125 5.070312 -0.515625 5.03125 -0.453125 C 5 -0.398438 4.953125 -0.351562 4.890625 -0.3125 C 4.671875 -0.195312 4.425781 -0.101562 4.15625 -0.03125 C 3.882812 0.0390625 3.617188 0.078125 3.359375 0.078125 C 2.816406 0.078125 2.316406 -0.0390625 1.859375 -0.28125 C 1.398438 -0.519531 1.035156 -0.867188 0.765625 -1.328125 C 0.492188 -1.785156 0.359375 -2.320312 0.359375 -2.9375 C 0.359375 -3.5 0.488281 -4.007812 0.75 -4.46875 C 1.007812 -4.925781 1.367188 -5.285156 1.828125 -5.546875 C 2.285156 -5.804688 2.796875 -5.9375 3.359375 -5.9375 C 3.898438 -5.9375 4.410156 -5.800781 4.890625 -5.53125 Z M 4.890625 -5.53125 "/></g></g></g><g fill="#292929" fill-opacity="1"><g transform="translate(209.845624, 220.720685)"><g><path d="M 5.203125 -0.515625 C 5.222656 -0.460938 5.234375 -0.410156 5.234375 -0.359375 C 5.234375 -0.242188 5.195312 -0.148438 5.125 -0.078125 C 5.050781 -0.00390625 4.960938 0.03125 4.859375 0.03125 C 4.773438 0.03125 4.703125 0.00390625 4.640625 -0.046875 C 4.578125 -0.0976562 4.523438 -0.164062 4.484375 -0.25 L 3.96875 -1.484375 L 1.375 -1.484375 L 0.859375 -0.234375 C 0.835938 -0.148438 0.789062 -0.0820312 0.71875 -0.03125 C 0.65625 0.0078125 0.585938 0.03125 0.515625 0.03125 C 0.390625 0.03125 0.296875 0 0.234375 -0.0625 C 0.179688 -0.125 0.15625 -0.207031 0.15625 -0.3125 C 0.15625 -0.34375 0.160156 -0.390625 0.171875 -0.453125 L 2.3125 -5.640625 C 2.34375 -5.722656 2.394531 -5.789062 2.46875 -5.84375 C 2.539062 -5.894531 2.617188 -5.914062 2.703125 -5.90625 C 2.796875 -5.90625 2.875 -5.878906 2.9375 -5.828125 C 3 -5.785156 3.046875 -5.722656 3.078125 -5.640625 Z M 1.6875 -2.234375 L 3.65625 -2.234375 L 2.671875 -4.59375 Z M 1.6875 -2.234375 "/></g></g></g><g fill="#292929" fill-opacity="1"><g transform="translate(217.628073, 220.720685)"><g><path d="M 5.171875 -0.671875 C 5.222656 -0.628906 5.265625 -0.578125 5.296875 -0.515625 C 5.335938 -0.460938 5.359375 -0.40625 5.359375 -0.34375 C 5.359375 -0.226562 5.316406 -0.140625 5.234375 -0.078125 C 5.160156 -0.0234375 5.070312 0 4.96875 0 C 4.863281 0 4.773438 -0.0195312 4.703125 -0.0625 C 4.535156 -0.15625 4.394531 -0.304688 4.28125 -0.515625 C 4.175781 -0.734375 4.125 -1.050781 4.125 -1.46875 C 4.125 -1.75 4.039062 -1.957031 3.875 -2.09375 C 3.707031 -2.226562 3.488281 -2.296875 3.21875 -2.296875 L 1.53125 -2.296875 L 1.53125 -0.40625 C 1.53125 -0.28125 1.492188 -0.179688 1.421875 -0.109375 C 1.359375 -0.0351562 1.273438 0 1.171875 0 C 1.035156 0 0.921875 -0.0351562 0.828125 -0.109375 C 0.742188 -0.191406 0.703125 -0.289062 0.703125 -0.40625 L 0.703125 -5.46875 C 0.703125 -5.582031 0.738281 -5.675781 0.8125 -5.75 C 0.894531 -5.832031 0.988281 -5.875 1.09375 -5.875 L 3.453125 -5.875 C 3.753906 -5.875 4.03125 -5.796875 4.28125 -5.640625 C 4.539062 -5.492188 4.742188 -5.289062 4.890625 -5.03125 C 5.046875 -4.769531 5.125 -4.476562 5.125 -4.15625 C 5.125 -3.84375 5.035156 -3.550781 4.859375 -3.28125 C 4.691406 -3.007812 4.476562 -2.804688 4.21875 -2.671875 C 4.425781 -2.566406 4.585938 -2.421875 4.703125 -2.234375 C 4.828125 -2.046875 4.894531 -1.820312 4.90625 -1.5625 C 4.925781 -1.25 4.953125 -1.035156 4.984375 -0.921875 C 5.015625 -0.804688 5.078125 -0.722656 5.171875 -0.671875 Z M 3.4375 -2.984375 C 3.582031 -2.992188 3.71875 -3.050781 3.84375 -3.15625 C 3.96875 -3.257812 4.066406 -3.394531 4.140625 -3.5625 C 4.222656 -3.726562 4.265625 -3.921875 4.265625 -4.140625 C 4.265625 -4.410156 4.179688 -4.632812 4.015625 -4.8125 C 3.847656 -5 3.648438 -5.09375 3.421875 -5.09375 L 1.53125 -5.09375 L 1.53125 -2.984375 Z M 3.4375 -2.984375 "/></g></g></g><g fill="#292929" fill-opacity="1"><g transform="translate(225.729104, 220.720685)"><g><path d="M 1.53125 -0.40625 C 1.53125 -0.289062 1.488281 -0.191406 1.40625 -0.109375 C 1.320312 -0.0351562 1.222656 0 1.109375 0 C 0.984375 0 0.882812 -0.0351562 0.8125 -0.109375 C 0.738281 -0.191406 0.703125 -0.289062 0.703125 -0.40625 L 0.703125 -5.46875 C 0.703125 -5.582031 0.738281 -5.675781 0.8125 -5.75 C 0.894531 -5.832031 0.992188 -5.875 1.109375 -5.875 C 1.222656 -5.875 1.320312 -5.832031 1.40625 -5.75 C 1.488281 -5.675781 1.53125 -5.582031 1.53125 -5.46875 Z M 1.53125 -0.40625 "/></g></g></g><g fill="#292929" fill-opacity="1"><g transform="translate(230.350924, 220.720685)"><g><path d="M 5.078125 -5.875 C 5.191406 -5.875 5.28125 -5.835938 5.34375 -5.765625 C 5.414062 -5.691406 5.453125 -5.601562 5.453125 -5.5 L 5.453125 -0.40625 C 5.453125 -0.289062 5.410156 -0.191406 5.328125 -0.109375 C 5.253906 -0.0351562 5.160156 0 5.046875 0 C 4.984375 0 4.921875 -0.0078125 4.859375 -0.03125 C 4.804688 -0.0507812 4.757812 -0.0820312 4.71875 -0.125 L 1.421875 -4.40625 L 1.421875 -0.375 C 1.421875 -0.257812 1.382812 -0.164062 1.3125 -0.09375 C 1.25 -0.03125 1.164062 0 1.0625 0 C 0.945312 0 0.859375 -0.03125 0.796875 -0.09375 C 0.734375 -0.164062 0.703125 -0.257812 0.703125 -0.375 L 0.703125 -5.46875 C 0.703125 -5.582031 0.738281 -5.675781 0.8125 -5.75 C 0.882812 -5.832031 0.976562 -5.875 1.09375 -5.875 C 1.15625 -5.875 1.21875 -5.859375 1.28125 -5.828125 C 1.34375 -5.804688 1.390625 -5.773438 1.421875 -5.734375 L 4.71875 -1.421875 L 4.71875 -5.5 C 4.71875 -5.601562 4.75 -5.691406 4.8125 -5.765625 C 4.882812 -5.835938 4.972656 -5.875 5.078125 -5.875 Z M 5.078125 -5.875 "/></g></g></g><g fill="#292929" fill-opacity="1"><g transform="translate(238.887903, 220.720685)"><g><path d="M 5.015625 -3.09375 C 5.117188 -3.09375 5.207031 -3.050781 5.28125 -2.96875 C 5.363281 -2.894531 5.40625 -2.800781 5.40625 -2.6875 L 5.40625 -0.796875 C 5.40625 -0.648438 5.335938 -0.53125 5.203125 -0.4375 C 4.941406 -0.269531 4.65625 -0.140625 4.34375 -0.046875 C 4.039062 0.0351562 3.726562 0.078125 3.40625 0.078125 C 2.84375 0.078125 2.328125 -0.0507812 1.859375 -0.3125 C 1.398438 -0.582031 1.035156 -0.945312 0.765625 -1.40625 C 0.492188 -1.875 0.359375 -2.382812 0.359375 -2.9375 C 0.359375 -3.488281 0.492188 -3.992188 0.765625 -4.453125 C 1.035156 -4.921875 1.398438 -5.285156 1.859375 -5.546875 C 2.328125 -5.816406 2.84375 -5.953125 3.40625 -5.953125 C 3.6875 -5.953125 3.957031 -5.921875 4.21875 -5.859375 C 4.476562 -5.796875 4.710938 -5.707031 4.921875 -5.59375 C 4.984375 -5.550781 5.03125 -5.5 5.0625 -5.4375 C 5.101562 -5.382812 5.125 -5.328125 5.125 -5.265625 C 5.125 -5.148438 5.082031 -5.050781 5 -4.96875 C 4.925781 -4.882812 4.835938 -4.84375 4.734375 -4.84375 C 4.648438 -4.84375 4.578125 -4.863281 4.515625 -4.90625 C 4.148438 -5.070312 3.78125 -5.15625 3.40625 -5.15625 C 3 -5.15625 2.628906 -5.054688 2.296875 -4.859375 C 1.960938 -4.671875 1.695312 -4.40625 1.5 -4.0625 C 1.3125 -3.71875 1.21875 -3.34375 1.21875 -2.9375 C 1.21875 -2.53125 1.3125 -2.15625 1.5 -1.8125 C 1.695312 -1.476562 1.960938 -1.210938 2.296875 -1.015625 C 2.628906 -0.816406 3 -0.71875 3.40625 -0.71875 C 3.59375 -0.71875 3.789062 -0.738281 4 -0.78125 C 4.21875 -0.820312 4.398438 -0.878906 4.546875 -0.953125 L 4.546875 -2.296875 L 3.53125 -2.296875 C 3.414062 -2.296875 3.316406 -2.332031 3.234375 -2.40625 C 3.160156 -2.476562 3.125 -2.570312 3.125 -2.6875 C 3.125 -2.800781 3.160156 -2.894531 3.234375 -2.96875 C 3.316406 -3.050781 3.414062 -3.09375 3.53125 -3.09375 Z M 5.015625 -3.09375 "/></g></g></g></svg>