<svg xmlns="http://www.w3.org/2000/svg" xmlns:xlink="http://www.w3.org/1999/xlink" width="500" zoomAndPan="magnify" viewBox="0 0 375 374.999991" height="500" preserveAspectRatio="xMidYMid meet" version="1.0"><defs><g/></defs><g fill="#6eb6bb" fill-opacity="1"><g transform="translate(76.759013, 219.059486)"><g><path d="M 21.796875 0.765625 C 18.097656 0.765625 14.820312 0.148438 11.96875 -1.078125 C 9.125 -2.304688 6.367188 -4.234375 3.703125 -6.859375 C 3.078125 -7.367188 2.765625 -7.984375 2.765625 -8.703125 C 2.765625 -9.316406 3.007812 -9.878906 3.5 -10.390625 C 3.988281 -10.910156 4.539062 -11.171875 5.15625 -11.171875 C 5.769531 -11.171875 6.335938 -10.910156 6.859375 -10.390625 C 10.859375 -5.972656 15.863281 -3.765625 21.875 -3.765625 C 25.5625 -3.765625 28.625 -4.640625 31.0625 -6.390625 C 33.507812 -8.140625 34.734375 -10.425781 34.734375 -13.25 C 34.734375 -15.457031 34.128906 -17.289062 32.921875 -18.75 C 31.710938 -20.207031 30.128906 -21.398438 28.171875 -22.328125 C 26.222656 -23.253906 23.738281 -24.203125 20.71875 -25.171875 C 17.425781 -26.148438 14.664062 -27.226562 12.4375 -28.40625 C 10.207031 -29.59375 8.394531 -31.171875 7 -33.140625 C 5.613281 -35.117188 4.921875 -37.625 4.921875 -40.65625 C 4.921875 -43.375 5.648438 -45.785156 7.109375 -47.890625 C 8.578125 -49.992188 10.632812 -51.648438 13.28125 -52.859375 C 15.925781 -54.066406 18.96875 -54.671875 22.40625 -54.671875 C 25.539062 -54.671875 28.476562 -54.144531 31.21875 -53.09375 C 33.96875 -52.039062 36.164062 -50.539062 37.8125 -48.59375 C 38.582031 -47.71875 38.96875 -46.972656 38.96875 -46.359375 C 38.96875 -45.785156 38.707031 -45.253906 38.1875 -44.765625 C 37.675781 -44.285156 37.113281 -44.046875 36.5 -44.046875 C 35.988281 -44.046875 35.550781 -44.222656 35.1875 -44.578125 C 33.800781 -46.222656 31.953125 -47.554688 29.640625 -48.578125 C 27.335938 -49.609375 24.925781 -50.125 22.40625 -50.125 C 18.65625 -50.125 15.597656 -49.289062 13.234375 -47.625 C 10.878906 -45.957031 9.703125 -43.6875 9.703125 -40.8125 C 9.703125 -37.832031 10.832031 -35.546875 13.09375 -33.953125 C 15.351562 -32.359375 18.585938 -30.894531 22.796875 -29.5625 C 26.441406 -28.488281 29.414062 -27.382812 31.71875 -26.25 C 34.03125 -25.125 35.914062 -23.519531 37.375 -21.4375 C 38.84375 -19.363281 39.578125 -16.632812 39.578125 -13.25 C 39.578125 -10.625 38.816406 -8.242188 37.296875 -6.109375 C 35.785156 -3.984375 33.679688 -2.304688 30.984375 -1.078125 C 28.296875 0.148438 25.234375 0.765625 21.796875 0.765625 Z M 21.796875 0.765625 "/></g></g></g><g fill="#6eb6bb" fill-opacity="1"><g transform="translate(118.71966, 219.059486)"><g><path d="M 50.75 -39.65625 C 55.363281 -39.65625 58.757812 -38.226562 60.9375 -35.375 C 63.125 -32.53125 64.21875 -28.769531 64.21875 -24.09375 L 64.21875 -2.3125 C 64.21875 -1.644531 64 -1.09375 63.5625 -0.65625 C 63.125 -0.21875 62.570312 0 61.90625 0 C 61.238281 0 60.6875 -0.21875 60.25 -0.65625 C 59.8125 -1.09375 59.59375 -1.644531 59.59375 -2.3125 L 59.59375 -23.875 C 59.59375 -27.257812 58.785156 -30.015625 57.171875 -32.140625 C 55.554688 -34.273438 53.054688 -35.34375 49.671875 -35.34375 C 47.515625 -35.34375 45.472656 -34.828125 43.546875 -33.796875 C 41.617188 -32.773438 40.0625 -31.378906 38.875 -29.609375 C 37.695312 -27.835938 37.109375 -25.925781 37.109375 -23.875 L 37.109375 -2.3125 C 37.109375 -1.644531 36.890625 -1.09375 36.453125 -0.65625 C 36.023438 -0.21875 35.472656 0 34.796875 0 C 34.128906 0 33.578125 -0.21875 33.140625 -0.65625 C 32.710938 -1.09375 32.5 -1.644531 32.5 -2.3125 L 32.5 -24.09375 C 32.5 -27.4375 31.726562 -30.144531 30.1875 -32.21875 C 28.644531 -34.300781 26.234375 -35.34375 22.953125 -35.34375 C 20.835938 -35.34375 18.84375 -34.828125 16.96875 -33.796875 C 15.101562 -32.773438 13.59375 -31.40625 12.4375 -29.6875 C 11.28125 -27.96875 10.703125 -26.101562 10.703125 -24.09375 L 10.703125 -2.3125 C 10.703125 -1.644531 10.484375 -1.09375 10.046875 -0.65625 C 9.609375 -0.21875 9.054688 0 8.390625 0 C 7.722656 0 7.171875 -0.21875 6.734375 -0.65625 C 6.296875 -1.09375 6.078125 -1.644531 6.078125 -2.3125 L 6.078125 -36.8125 C 6.078125 -37.476562 6.296875 -38.023438 6.734375 -38.453125 C 7.171875 -38.890625 7.722656 -39.109375 8.390625 -39.109375 C 9.054688 -39.109375 9.609375 -38.890625 10.046875 -38.453125 C 10.484375 -38.023438 10.703125 -37.476562 10.703125 -36.8125 L 10.703125 -32.34375 C 12.085938 -34.445312 13.957031 -36.191406 16.3125 -37.578125 C 18.675781 -38.960938 21.171875 -39.65625 23.796875 -39.65625 C 26.773438 -39.65625 29.34375 -38.9375 31.5 -37.5 C 33.65625 -36.0625 35.191406 -33.957031 36.109375 -31.1875 C 37.191406 -33.445312 39.171875 -35.421875 42.046875 -37.109375 C 44.921875 -38.804688 47.820312 -39.65625 50.75 -39.65625 Z M 50.75 -39.65625 "/></g></g></g><g fill="#6eb6bb" fill-opacity="1"><g transform="translate(187.627605, 219.059486)"><g><path d="M 10.546875 -2.3125 C 10.546875 -1.644531 10.328125 -1.09375 9.890625 -0.65625 C 9.453125 -0.21875 8.898438 0 8.234375 0 C 7.566406 0 7.015625 -0.21875 6.578125 -0.65625 C 6.140625 -1.09375 5.921875 -1.644531 5.921875 -2.3125 L 5.921875 -37.734375 C 5.921875 -38.398438 6.140625 -38.953125 6.578125 -39.390625 C 7.015625 -39.828125 7.566406 -40.046875 8.234375 -40.046875 C 8.898438 -40.046875 9.453125 -39.828125 9.890625 -39.390625 C 10.328125 -38.953125 10.546875 -38.398438 10.546875 -37.734375 Z M 8.25 -45.203125 C 7.21875 -45.203125 6.421875 -45.441406 5.859375 -45.921875 C 5.296875 -46.410156 5.015625 -47.117188 5.015625 -48.046875 L 5.015625 -48.8125 C 5.015625 -49.738281 5.304688 -50.445312 5.890625 -50.9375 C 6.484375 -51.425781 7.289062 -51.671875 8.3125 -51.671875 C 10.375 -51.671875 11.40625 -50.71875 11.40625 -48.8125 L 11.40625 -48.046875 C 11.40625 -47.117188 11.132812 -46.410156 10.59375 -45.921875 C 10.050781 -45.441406 9.269531 -45.203125 8.25 -45.203125 Z M 8.25 -45.203125 "/></g></g></g><g fill="#6eb6bb" fill-opacity="1"><g transform="translate(202.79494, 219.059486)"><g><path d="M 11.171875 -2.3125 C 11.171875 -1.644531 10.953125 -1.09375 10.515625 -0.65625 C 10.078125 -0.21875 9.523438 0 8.859375 0 C 8.191406 0 7.640625 -0.21875 7.203125 -0.65625 C 6.765625 -1.09375 6.546875 -1.644531 6.546875 -2.3125 L 6.546875 -54.671875 C 6.546875 -55.335938 6.765625 -55.890625 7.203125 -56.328125 C 7.640625 -56.765625 8.191406 -56.984375 8.859375 -56.984375 C 9.523438 -56.984375 10.078125 -56.765625 10.515625 -56.328125 C 10.953125 -55.890625 11.171875 -55.335938 11.171875 -54.671875 Z M 11.171875 -2.3125 "/></g></g></g><g fill="#6eb6bb" fill-opacity="1"><g transform="translate(219.194162, 219.059486)"><g><path d="M 10.546875 -2.3125 C 10.546875 -1.644531 10.328125 -1.09375 9.890625 -0.65625 C 9.453125 -0.21875 8.898438 0 8.234375 0 C 7.566406 0 7.015625 -0.21875 6.578125 -0.65625 C 6.140625 -1.09375 5.921875 -1.644531 5.921875 -2.3125 L 5.921875 -37.734375 C 5.921875 -38.398438 6.140625 -38.953125 6.578125 -39.390625 C 7.015625 -39.828125 7.566406 -40.046875 8.234375 -40.046875 C 8.898438 -40.046875 9.453125 -39.828125 9.890625 -39.390625 C 10.328125 -38.953125 10.546875 -38.398438 10.546875 -37.734375 Z M 8.25 -45.203125 C 7.21875 -45.203125 6.421875 -45.441406 5.859375 -45.921875 C 5.296875 -46.410156 5.015625 -47.117188 5.015625 -48.046875 L 5.015625 -48.8125 C 5.015625 -49.738281 5.304688 -50.445312 5.890625 -50.9375 C 6.484375 -51.425781 7.289062 -51.671875 8.3125 -51.671875 C 10.375 -51.671875 11.40625 -50.71875 11.40625 -48.8125 L 11.40625 -48.046875 C 11.40625 -47.117188 11.132812 -46.410156 10.59375 -45.921875 C 10.050781 -45.441406 9.269531 -45.203125 8.25 -45.203125 Z M 8.25 -45.203125 "/></g></g></g><g fill="#6eb6bb" fill-opacity="1"><g transform="translate(234.361496, 219.059486)"><g><path d="M 24.640625 -40.265625 C 29.410156 -40.265625 32.910156 -38.863281 35.140625 -36.0625 C 37.378906 -33.269531 38.5 -29.566406 38.5 -24.953125 L 38.5 -2.3125 C 38.5 -1.644531 38.265625 -1.09375 37.796875 -0.65625 C 37.335938 -0.21875 36.800781 0 36.1875 0 C 35.519531 0 34.96875 -0.21875 34.53125 -0.65625 C 34.09375 -1.09375 33.875 -1.644531 33.875 -2.3125 L 33.875 -24.71875 C 33.875 -28.050781 33.039062 -30.753906 31.375 -32.828125 C 29.707031 -34.910156 27.128906 -35.953125 23.640625 -35.953125 C 21.429688 -35.953125 19.335938 -35.4375 17.359375 -34.40625 C 15.390625 -33.382812 13.785156 -32.015625 12.546875 -30.296875 C 11.316406 -28.578125 10.703125 -26.71875 10.703125 -24.71875 L 10.703125 -2.3125 C 10.703125 -1.644531 10.484375 -1.09375 10.046875 -0.65625 C 9.609375 -0.21875 9.054688 0 8.390625 0 C 7.722656 0 7.171875 -0.21875 6.734375 -0.65625 C 6.296875 -1.09375 6.078125 -1.644531 6.078125 -2.3125 L 6.078125 -36.8125 C 6.078125 -37.476562 6.296875 -38.023438 6.734375 -38.453125 C 7.171875 -38.890625 7.722656 -39.109375 8.390625 -39.109375 C 9.054688 -39.109375 9.609375 -38.890625 10.046875 -38.453125 C 10.484375 -38.023438 10.703125 -37.476562 10.703125 -36.8125 L 10.703125 -32.578125 C 12.085938 -34.773438 14.078125 -36.601562 16.671875 -38.0625 C 19.265625 -39.53125 21.921875 -40.265625 24.640625 -40.265625 Z M 24.640625 -40.265625 "/></g></g></g><g fill="#6eb6bb" fill-opacity="1"><g transform="translate(277.554014, 219.059486)"><g><path d="M 39.34375 -39.34375 C 40.007812 -39.34375 40.5625 -39.125 41 -38.6875 C 41.4375 -38.25 41.65625 -37.671875 41.65625 -36.953125 L 41.65625 -3.625 C 41.65625 0.382812 40.820312 3.8125 39.15625 6.65625 C 37.488281 9.507812 35.203125 11.679688 32.296875 13.171875 C 29.398438 14.660156 26.078125 15.40625 22.328125 15.40625 C 20.535156 15.40625 18.648438 15.171875 16.671875 14.703125 C 14.691406 14.242188 12.992188 13.65625 11.578125 12.9375 C 10.171875 12.21875 9.363281 11.472656 9.15625 10.703125 C 8.800781 10.335938 8.625 9.925781 8.625 9.46875 C 8.625 8.957031 8.851562 8.546875 9.3125 8.234375 C 9.519531 8.085938 9.78125 8.015625 10.09375 8.015625 C 10.394531 8.015625 10.984375 8.191406 11.859375 8.546875 L 13.46875 9.234375 C 16.65625 10.472656 19.632812 11.09375 22.40625 11.09375 C 26.976562 11.09375 30.554688 9.796875 33.140625 7.203125 C 35.734375 4.609375 37.03125 1.101562 37.03125 -3.3125 L 37.03125 -8.078125 C 35.75 -5.304688 33.722656 -3.140625 30.953125 -1.578125 C 28.179688 -0.015625 25.28125 0.765625 22.25 0.765625 C 18.707031 0.765625 15.507812 -0.117188 12.65625 -1.890625 C 9.8125 -3.660156 7.566406 -6.109375 5.921875 -9.234375 C 4.285156 -12.367188 3.46875 -15.882812 3.46875 -19.78125 C 3.46875 -23.632812 4.285156 -27.125 5.921875 -30.25 C 7.566406 -33.382812 9.8125 -35.835938 12.65625 -37.609375 C 15.507812 -39.378906 18.679688 -40.265625 22.171875 -40.265625 C 25.410156 -40.265625 28.375 -39.457031 31.0625 -37.84375 C 33.757812 -36.226562 35.75 -34.289062 37.03125 -32.03125 L 37.03125 -36.953125 C 37.03125 -37.628906 37.25 -38.195312 37.6875 -38.65625 C 38.125 -39.113281 38.675781 -39.34375 39.34375 -39.34375 Z M 22.640625 -3.546875 C 25.460938 -3.546875 27.988281 -4.222656 30.21875 -5.578125 C 32.457031 -6.941406 34.203125 -8.867188 35.453125 -11.359375 C 36.710938 -13.847656 37.34375 -16.65625 37.34375 -19.78125 C 37.34375 -22.914062 36.710938 -25.710938 35.453125 -28.171875 C 34.203125 -30.640625 32.457031 -32.550781 30.21875 -33.90625 C 27.988281 -35.269531 25.460938 -35.953125 22.640625 -35.953125 C 19.867188 -35.953125 17.363281 -35.242188 15.125 -33.828125 C 12.894531 -32.421875 11.148438 -30.484375 9.890625 -28.015625 C 8.640625 -25.554688 8.015625 -22.8125 8.015625 -19.78125 C 8.015625 -16.707031 8.640625 -13.9375 9.890625 -11.46875 C 11.148438 -9.007812 12.894531 -7.070312 15.125 -5.65625 C 17.363281 -4.25 19.867188 -3.546875 22.640625 -3.546875 Z M 22.640625 -3.546875 "/></g></g></g><g fill="#292929" fill-opacity="1"><g transform="translate(137.154304, 233.559462)"><g><path d="M 7.046875 -8.40625 C 7.222656 -8.40625 7.363281 -8.347656 7.46875 -8.234375 C 7.582031 -8.128906 7.640625 -7.992188 7.640625 -7.828125 L 7.640625 -0.59375 C 7.628906 -0.425781 7.566406 -0.285156 7.453125 -0.171875 C 7.347656 -0.0546875 7.207031 0 7.03125 0 C 6.875 0 6.734375 -0.0546875 6.609375 -0.171875 C 6.492188 -0.285156 6.4375 -0.425781 6.4375 -0.59375 L 6.4375 -3.703125 L 2.1875 -3.703125 L 2.1875 -0.59375 C 2.1875 -0.425781 2.125 -0.285156 2 -0.171875 C 1.882812 -0.0546875 1.742188 0 1.578125 0 C 1.398438 0 1.257812 -0.0546875 1.15625 -0.171875 C 1.050781 -0.285156 1 -0.425781 1 -0.59375 L 1 -7.828125 C 1 -7.984375 1.050781 -8.117188 1.15625 -8.234375 C 1.269531 -8.347656 1.414062 -8.40625 1.59375 -8.40625 C 1.757812 -8.40625 1.898438 -8.347656 2.015625 -8.234375 C 2.128906 -8.117188 2.1875 -7.984375 2.1875 -7.828125 L 2.1875 -4.796875 L 6.4375 -4.796875 L 6.4375 -7.828125 C 6.4375 -7.984375 6.492188 -8.117188 6.609375 -8.234375 C 6.734375 -8.347656 6.878906 -8.40625 7.046875 -8.40625 Z M 7.046875 -8.40625 "/></g></g></g><g fill="#292929" fill-opacity="1"><g transform="translate(149.214325, 233.559462)"><g><path d="M 5.75 -1.109375 C 5.914062 -1.109375 6.050781 -1.050781 6.15625 -0.9375 C 6.269531 -0.820312 6.328125 -0.691406 6.328125 -0.546875 C 6.328125 -0.378906 6.269531 -0.242188 6.15625 -0.140625 C 6.050781 -0.046875 5.914062 0 5.75 0 L 1.578125 0 C 1.410156 0 1.269531 -0.0546875 1.15625 -0.171875 C 1.050781 -0.285156 1 -0.421875 1 -0.578125 L 1 -7.828125 C 1 -7.984375 1.050781 -8.117188 1.15625 -8.234375 C 1.269531 -8.347656 1.410156 -8.40625 1.578125 -8.40625 L 5.75 -8.40625 C 5.914062 -8.40625 6.050781 -8.351562 6.15625 -8.25 C 6.269531 -8.144531 6.328125 -8.007812 6.328125 -7.84375 C 6.328125 -7.675781 6.269531 -7.539062 6.15625 -7.4375 C 6.050781 -7.34375 5.914062 -7.296875 5.75 -7.296875 L 2.1875 -7.296875 L 2.1875 -4.84375 L 5.203125 -4.84375 C 5.367188 -4.84375 5.503906 -4.789062 5.609375 -4.6875 C 5.722656 -4.582031 5.78125 -4.453125 5.78125 -4.296875 C 5.78125 -4.128906 5.722656 -3.992188 5.609375 -3.890625 C 5.503906 -3.796875 5.367188 -3.75 5.203125 -3.75 L 2.1875 -3.75 L 2.1875 -1.109375 Z M 5.75 -1.109375 "/></g></g></g><g fill="#292929" fill-opacity="1"><g transform="translate(159.486344, 233.559462)"><g><path d="M 7.453125 -0.75 C 7.472656 -0.675781 7.484375 -0.597656 7.484375 -0.515625 C 7.484375 -0.359375 7.425781 -0.226562 7.3125 -0.125 C 7.207031 -0.0195312 7.085938 0.03125 6.953125 0.03125 C 6.835938 0.03125 6.734375 0 6.640625 -0.0625 C 6.546875 -0.132812 6.472656 -0.226562 6.421875 -0.34375 L 5.671875 -2.109375 L 1.96875 -2.109375 L 1.234375 -0.34375 C 1.191406 -0.21875 1.125 -0.125 1.03125 -0.0625 C 0.945312 0 0.847656 0.03125 0.734375 0.03125 C 0.566406 0.03125 0.4375 -0.0078125 0.34375 -0.09375 C 0.257812 -0.1875 0.21875 -0.304688 0.21875 -0.453125 C 0.21875 -0.484375 0.222656 -0.546875 0.234375 -0.640625 L 3.296875 -8.0625 C 3.359375 -8.1875 3.4375 -8.28125 3.53125 -8.34375 C 3.632812 -8.414062 3.75 -8.445312 3.875 -8.4375 C 4 -8.4375 4.109375 -8.40625 4.203125 -8.34375 C 4.296875 -8.28125 4.363281 -8.1875 4.40625 -8.0625 Z M 2.421875 -3.203125 L 5.21875 -3.203125 L 3.8125 -6.5625 Z M 2.421875 -3.203125 "/></g></g></g><g fill="#292929" fill-opacity="1"><g transform="translate(170.622357, 233.559462)"><g><path d="M 6.4375 -8.40625 C 6.613281 -8.40625 6.753906 -8.351562 6.859375 -8.25 C 6.960938 -8.144531 7.015625 -8.007812 7.015625 -7.84375 C 7.015625 -7.675781 6.960938 -7.546875 6.859375 -7.453125 C 6.753906 -7.359375 6.613281 -7.3125 6.4375 -7.3125 L 4.3125 -7.3125 L 4.3125 -0.578125 C 4.3125 -0.421875 4.25 -0.285156 4.125 -0.171875 C 4.007812 -0.0546875 3.867188 0 3.703125 0 C 3.523438 0 3.375 -0.0546875 3.25 -0.171875 C 3.132812 -0.285156 3.078125 -0.421875 3.078125 -0.578125 L 3.078125 -7.3125 L 0.953125 -7.3125 C 0.785156 -7.3125 0.648438 -7.359375 0.546875 -7.453125 C 0.441406 -7.554688 0.390625 -7.691406 0.390625 -7.859375 C 0.390625 -8.015625 0.441406 -8.144531 0.546875 -8.25 C 0.648438 -8.351562 0.785156 -8.40625 0.953125 -8.40625 Z M 6.4375 -8.40625 "/></g></g></g><g fill="#292929" fill-opacity="1"><g transform="translate(181.458375, 233.559462)"><g><path d="M 7.046875 -8.40625 C 7.222656 -8.40625 7.363281 -8.347656 7.46875 -8.234375 C 7.582031 -8.128906 7.640625 -7.992188 7.640625 -7.828125 L 7.640625 -0.59375 C 7.628906 -0.425781 7.566406 -0.285156 7.453125 -0.171875 C 7.347656 -0.0546875 7.207031 0 7.03125 0 C 6.875 0 6.734375 -0.0546875 6.609375 -0.171875 C 6.492188 -0.285156 6.4375 -0.425781 6.4375 -0.59375 L 6.4375 -3.703125 L 2.1875 -3.703125 L 2.1875 -0.59375 C 2.1875 -0.425781 2.125 -0.285156 2 -0.171875 C 1.882812 -0.0546875 1.742188 0 1.578125 0 C 1.398438 0 1.257812 -0.0546875 1.15625 -0.171875 C 1.050781 -0.285156 1 -0.425781 1 -0.59375 L 1 -7.828125 C 1 -7.984375 1.050781 -8.117188 1.15625 -8.234375 C 1.269531 -8.347656 1.414062 -8.40625 1.59375 -8.40625 C 1.757812 -8.40625 1.898438 -8.347656 2.015625 -8.234375 C 2.128906 -8.117188 2.1875 -7.984375 2.1875 -7.828125 L 2.1875 -4.796875 L 6.4375 -4.796875 L 6.4375 -7.828125 C 6.4375 -7.984375 6.492188 -8.117188 6.609375 -8.234375 C 6.734375 -8.347656 6.878906 -8.40625 7.046875 -8.40625 Z M 7.046875 -8.40625 "/></g></g></g><g fill="#292929" fill-opacity="1"><g transform="translate(193.518398, 233.559462)"><g><path d="M 6.765625 -7.859375 C 6.765625 -7.742188 6.726562 -7.625 6.65625 -7.5 L 4.078125 -3.859375 L 4.078125 -0.578125 C 4.078125 -0.421875 4.019531 -0.285156 3.90625 -0.171875 C 3.800781 -0.0546875 3.675781 0 3.53125 0 C 3.363281 0 3.222656 -0.0546875 3.109375 -0.171875 C 3.003906 -0.285156 2.953125 -0.421875 2.953125 -0.578125 L 2.953125 -3.953125 L 0.390625 -7.421875 C 0.273438 -7.566406 0.21875 -7.710938 0.21875 -7.859375 C 0.21875 -8.015625 0.28125 -8.148438 0.40625 -8.265625 C 0.53125 -8.378906 0.671875 -8.4375 0.828125 -8.4375 C 1.015625 -8.4375 1.171875 -8.347656 1.296875 -8.171875 L 3.546875 -5.046875 L 5.71875 -8.15625 C 5.851562 -8.34375 6.015625 -8.4375 6.203125 -8.4375 C 6.359375 -8.4375 6.488281 -8.378906 6.59375 -8.265625 C 6.707031 -8.148438 6.765625 -8.015625 6.765625 -7.859375 Z M 6.765625 -7.859375 "/></g></g></g><g fill="#292929" fill-opacity="1"><g transform="translate(203.922416, 233.559462)"><g><path d="M 6.984375 -7.90625 C 7.171875 -7.800781 7.265625 -7.640625 7.265625 -7.421875 C 7.265625 -7.285156 7.21875 -7.15625 7.125 -7.03125 C 7.03125 -6.90625 6.898438 -6.84375 6.734375 -6.84375 C 6.617188 -6.84375 6.507812 -6.867188 6.40625 -6.921875 C 5.90625 -7.203125 5.367188 -7.34375 4.796875 -7.34375 C 4.203125 -7.34375 3.671875 -7.207031 3.203125 -6.9375 C 2.742188 -6.675781 2.382812 -6.304688 2.125 -5.828125 C 1.875 -5.359375 1.75 -4.816406 1.75 -4.203125 C 1.75 -3.535156 1.878906 -2.960938 2.140625 -2.484375 C 2.410156 -2.003906 2.773438 -1.640625 3.234375 -1.390625 C 3.703125 -1.140625 4.222656 -1.015625 4.796875 -1.015625 C 5.390625 -1.015625 5.925781 -1.15625 6.40625 -1.4375 C 6.5 -1.488281 6.601562 -1.515625 6.71875 -1.515625 C 6.894531 -1.515625 7.035156 -1.445312 7.140625 -1.3125 C 7.234375 -1.1875 7.28125 -1.054688 7.28125 -0.921875 C 7.28125 -0.828125 7.253906 -0.738281 7.203125 -0.65625 C 7.148438 -0.570312 7.082031 -0.503906 7 -0.453125 C 6.6875 -0.273438 6.332031 -0.132812 5.9375 -0.03125 C 5.550781 0.0703125 5.171875 0.125 4.796875 0.125 C 4.023438 0.125 3.3125 -0.046875 2.65625 -0.390625 C 2.007812 -0.734375 1.488281 -1.234375 1.09375 -1.890625 C 0.707031 -2.546875 0.515625 -3.316406 0.515625 -4.203125 C 0.515625 -5.003906 0.695312 -5.734375 1.0625 -6.390625 C 1.4375 -7.046875 1.953125 -7.554688 2.609375 -7.921875 C 3.265625 -8.296875 3.992188 -8.484375 4.796875 -8.484375 C 5.578125 -8.484375 6.304688 -8.289062 6.984375 -7.90625 Z M 6.984375 -7.90625 "/></g></g></g><g fill="#292929" fill-opacity="1"><g transform="translate(215.010435, 233.559462)"><g><path d="M 7.453125 -0.75 C 7.472656 -0.675781 7.484375 -0.597656 7.484375 -0.515625 C 7.484375 -0.359375 7.425781 -0.226562 7.3125 -0.125 C 7.207031 -0.0195312 7.085938 0.03125 6.953125 0.03125 C 6.835938 0.03125 6.734375 0 6.640625 -0.0625 C 6.546875 -0.132812 6.472656 -0.226562 6.421875 -0.34375 L 5.671875 -2.109375 L 1.96875 -2.109375 L 1.234375 -0.34375 C 1.191406 -0.21875 1.125 -0.125 1.03125 -0.0625 C 0.945312 0 0.847656 0.03125 0.734375 0.03125 C 0.566406 0.03125 0.4375 -0.0078125 0.34375 -0.09375 C 0.257812 -0.1875 0.21875 -0.304688 0.21875 -0.453125 C 0.21875 -0.484375 0.222656 -0.546875 0.234375 -0.640625 L 3.296875 -8.0625 C 3.359375 -8.1875 3.4375 -8.28125 3.53125 -8.34375 C 3.632812 -8.414062 3.75 -8.445312 3.875 -8.4375 C 4 -8.4375 4.109375 -8.40625 4.203125 -8.34375 C 4.296875 -8.28125 4.363281 -8.1875 4.40625 -8.0625 Z M 2.421875 -3.203125 L 5.21875 -3.203125 L 3.8125 -6.5625 Z M 2.421875 -3.203125 "/></g></g></g><g fill="#292929" fill-opacity="1"><g transform="translate(226.146451, 233.559462)"><g><path d="M 7.390625 -0.953125 C 7.472656 -0.898438 7.535156 -0.832031 7.578125 -0.75 C 7.628906 -0.664062 7.65625 -0.578125 7.65625 -0.484375 C 7.65625 -0.316406 7.597656 -0.191406 7.484375 -0.109375 C 7.378906 -0.0351562 7.253906 0 7.109375 0 C 6.953125 0 6.820312 -0.03125 6.71875 -0.09375 C 6.476562 -0.226562 6.28125 -0.445312 6.125 -0.75 C 5.976562 -1.0625 5.90625 -1.507812 5.90625 -2.09375 C 5.90625 -2.5 5.785156 -2.796875 5.546875 -2.984375 C 5.304688 -3.179688 4.992188 -3.28125 4.609375 -3.28125 L 2.1875 -3.28125 L 2.1875 -0.578125 C 2.1875 -0.410156 2.132812 -0.269531 2.03125 -0.15625 C 1.9375 -0.0507812 1.816406 0 1.671875 0 C 1.484375 0 1.320312 -0.0546875 1.1875 -0.171875 C 1.0625 -0.285156 1 -0.421875 1 -0.578125 L 1 -7.828125 C 1 -7.984375 1.050781 -8.117188 1.15625 -8.234375 C 1.269531 -8.347656 1.410156 -8.40625 1.578125 -8.40625 L 4.9375 -8.40625 C 5.375 -8.40625 5.769531 -8.296875 6.125 -8.078125 C 6.488281 -7.867188 6.773438 -7.578125 6.984375 -7.203125 C 7.203125 -6.828125 7.3125 -6.410156 7.3125 -5.953125 C 7.3125 -5.503906 7.191406 -5.082031 6.953125 -4.6875 C 6.710938 -4.300781 6.40625 -4.015625 6.03125 -3.828125 C 6.332031 -3.671875 6.566406 -3.457031 6.734375 -3.1875 C 6.910156 -2.914062 7.003906 -2.601562 7.015625 -2.25 C 7.046875 -1.789062 7.082031 -1.476562 7.125 -1.3125 C 7.164062 -1.144531 7.253906 -1.023438 7.390625 -0.953125 Z M 4.921875 -4.265625 C 5.117188 -4.285156 5.304688 -4.367188 5.484375 -4.515625 C 5.671875 -4.660156 5.816406 -4.851562 5.921875 -5.09375 C 6.035156 -5.332031 6.09375 -5.609375 6.09375 -5.921875 C 6.09375 -6.296875 5.972656 -6.617188 5.734375 -6.890625 C 5.503906 -7.160156 5.222656 -7.296875 4.890625 -7.296875 L 2.1875 -7.296875 L 2.1875 -4.265625 Z M 4.921875 -4.265625 "/></g></g></g><g fill="#292929" fill-opacity="1"><g transform="translate(237.738469, 233.559462)"><g><path d="M 2.1875 -0.59375 C 2.1875 -0.425781 2.125 -0.285156 2 -0.171875 C 1.882812 -0.0546875 1.742188 0 1.578125 0 C 1.398438 0 1.257812 -0.0546875 1.15625 -0.171875 C 1.050781 -0.285156 1 -0.425781 1 -0.59375 L 1 -7.828125 C 1 -7.984375 1.050781 -8.117188 1.15625 -8.234375 C 1.269531 -8.347656 1.414062 -8.40625 1.59375 -8.40625 C 1.757812 -8.40625 1.898438 -8.347656 2.015625 -8.234375 C 2.128906 -8.117188 2.1875 -7.984375 2.1875 -7.828125 Z M 2.1875 -0.59375 "/></g></g></g><g fill="#292929" fill-opacity="1"><g transform="translate(244.350476, 233.559462)"><g><path d="M 7.265625 -8.40625 C 7.421875 -8.40625 7.546875 -8.351562 7.640625 -8.25 C 7.734375 -8.144531 7.78125 -8.019531 7.78125 -7.875 L 7.78125 -0.59375 C 7.78125 -0.425781 7.726562 -0.285156 7.625 -0.171875 C 7.519531 -0.0546875 7.382812 0 7.21875 0 C 7.125 0 7.035156 -0.0078125 6.953125 -0.03125 C 6.867188 -0.0625 6.800781 -0.109375 6.75 -0.171875 L 2.046875 -6.3125 L 2.046875 -0.53125 C 2.046875 -0.375 1.992188 -0.242188 1.890625 -0.140625 C 1.785156 -0.046875 1.660156 0 1.515625 0 C 1.359375 0 1.234375 -0.046875 1.140625 -0.140625 C 1.046875 -0.242188 1 -0.375 1 -0.53125 L 1 -7.828125 C 1 -7.992188 1.050781 -8.128906 1.15625 -8.234375 C 1.257812 -8.347656 1.394531 -8.40625 1.5625 -8.40625 C 1.65625 -8.40625 1.742188 -8.382812 1.828125 -8.34375 C 1.921875 -8.3125 1.992188 -8.265625 2.046875 -8.203125 L 6.75 -2.046875 L 6.75 -7.875 C 6.75 -8.019531 6.796875 -8.144531 6.890625 -8.25 C 6.992188 -8.351562 7.117188 -8.40625 7.265625 -8.40625 Z M 7.265625 -8.40625 "/></g></g></g><g fill="#292929" fill-opacity="1"><g transform="translate(256.566493, 233.559462)"><g><path d="M 7.15625 -4.421875 C 7.320312 -4.421875 7.457031 -4.363281 7.5625 -4.25 C 7.675781 -4.132812 7.734375 -4 7.734375 -3.84375 L 7.734375 -1.140625 C 7.734375 -0.921875 7.632812 -0.753906 7.4375 -0.640625 C 7.070312 -0.398438 6.664062 -0.210938 6.21875 -0.078125 C 5.78125 0.0546875 5.332031 0.125 4.875 0.125 C 4.070312 0.125 3.335938 -0.0664062 2.671875 -0.453125 C 2.003906 -0.835938 1.476562 -1.359375 1.09375 -2.015625 C 0.707031 -2.679688 0.515625 -3.410156 0.515625 -4.203125 C 0.515625 -4.992188 0.707031 -5.71875 1.09375 -6.375 C 1.476562 -7.039062 2.003906 -7.5625 2.671875 -7.9375 C 3.335938 -8.320312 4.070312 -8.515625 4.875 -8.515625 C 5.269531 -8.515625 5.65625 -8.46875 6.03125 -8.375 C 6.40625 -8.289062 6.738281 -8.160156 7.03125 -7.984375 C 7.125 -7.929688 7.191406 -7.863281 7.234375 -7.78125 C 7.285156 -7.707031 7.3125 -7.625 7.3125 -7.53125 C 7.3125 -7.363281 7.257812 -7.222656 7.15625 -7.109375 C 7.050781 -6.992188 6.921875 -6.9375 6.765625 -6.9375 C 6.648438 -6.9375 6.546875 -6.960938 6.453125 -7.015625 C 5.929688 -7.253906 5.40625 -7.375 4.875 -7.375 C 4.300781 -7.375 3.773438 -7.234375 3.296875 -6.953125 C 2.816406 -6.679688 2.4375 -6.300781 2.15625 -5.8125 C 1.882812 -5.320312 1.75 -4.785156 1.75 -4.203125 C 1.75 -3.617188 1.882812 -3.082031 2.15625 -2.59375 C 2.4375 -2.113281 2.816406 -1.726562 3.296875 -1.4375 C 3.773438 -1.15625 4.300781 -1.015625 4.875 -1.015625 C 5.144531 -1.015625 5.429688 -1.046875 5.734375 -1.109375 C 6.035156 -1.179688 6.289062 -1.269531 6.5 -1.375 L 6.5 -3.28125 L 5.046875 -3.28125 C 4.890625 -3.28125 4.753906 -3.332031 4.640625 -3.4375 C 4.523438 -3.539062 4.46875 -3.675781 4.46875 -3.84375 C 4.46875 -4.007812 4.523438 -4.144531 4.640625 -4.25 C 4.753906 -4.363281 4.890625 -4.421875 5.046875 -4.421875 Z M 7.15625 -4.421875 "/></g></g></g></svg>