<svg xmlns="http://www.w3.org/2000/svg" xmlns:xlink="http://www.w3.org/1999/xlink" width="500" zoomAndPan="magnify" viewBox="0 0 375 374.999991" height="500" preserveAspectRatio="xMidYMid meet" version="1.0"><defs><g/></defs><g fill="#00bf63" fill-opacity="1"><g transform="translate(82.369942, 212.624986)"><g><path d="M 25.5625 0 L 1.546875 0 L 13.546875 -64.0625 C 13.753906 -65.238281 13.984375 -66.429688 14.234375 -67.640625 C 14.492188 -68.847656 14.625 -70.003906 14.625 -71.109375 C 14.625 -72.210938 14.367188 -73.203125 13.859375 -74.078125 C 13.347656 -74.953125 12.425781 -75.617188 11.09375 -76.078125 C 10.519531 -76.179688 9.898438 -76.28125 9.234375 -76.375 C 8.566406 -76.476562 7.847656 -76.554688 7.078125 -76.609375 L 7.078125 -77 L 23.71875 -77 C 25.507812 -77 27.007812 -76.34375 28.21875 -75.03125 C 29.425781 -73.726562 30.207031 -71.867188 30.5625 -69.453125 C 31.1875 -64.984375 31.753906 -60.925781 32.265625 -57.28125 C 32.773438 -53.644531 33.257812 -50.15625 33.71875 -46.8125 C 34.1875 -43.476562 34.660156 -40.09375 35.140625 -36.65625 C 35.628906 -33.21875 36.1875 -29.492188 36.8125 -25.484375 C 37.113281 -23.484375 37.535156 -21.378906 38.078125 -19.171875 C 38.617188 -16.960938 39.285156 -14.894531 40.078125 -12.96875 C 40.867188 -11.050781 41.753906 -9.488281 42.734375 -8.28125 C 43.710938 -7.070312 44.789062 -6.46875 45.96875 -6.46875 C 47.507812 -6.46875 48.5625 -7.019531 49.125 -8.125 C 49.6875 -9.226562 49.941406 -10.738281 49.890625 -12.65625 C 49.835938 -14.582031 49.609375 -16.800781 49.203125 -19.3125 C 48.796875 -21.832031 48.359375 -24.503906 47.890625 -27.328125 C 47.585938 -29.128906 47.191406 -31.285156 46.703125 -33.796875 C 46.210938 -36.316406 45.695312 -39.023438 45.15625 -41.921875 C 44.625 -44.828125 44.148438 -47.765625 43.734375 -50.734375 C 43.328125 -53.710938 43.070312 -56.585938 42.96875 -59.359375 C 42.757812 -65.160156 43.882812 -69.675781 46.34375 -72.90625 C 48.8125 -76.144531 52.253906 -77.765625 56.671875 -77.765625 C 59.234375 -77.765625 61.242188 -77.175781 62.703125 -76 C 64.171875 -74.820312 65.265625 -73.253906 65.984375 -71.296875 C 66.703125 -69.347656 67.238281 -67.191406 67.59375 -64.828125 C 67.957031 -62.472656 68.320312 -60.085938 68.6875 -57.671875 C 69.507812 -52.128906 70.238281 -47.046875 70.875 -42.421875 C 71.519531 -37.804688 72.132812 -33.316406 72.71875 -28.953125 C 73.3125 -24.585938 73.914062 -20.082031 74.53125 -15.4375 C 75.144531 -10.789062 75.835938 -5.644531 76.609375 0 L 65.0625 0 C 64.289062 -5.644531 63.582031 -10.800781 62.9375 -15.46875 C 62.300781 -20.144531 61.675781 -24.664062 61.0625 -29.03125 C 60.445312 -33.394531 59.828125 -37.875 59.203125 -42.46875 C 58.585938 -47.0625 57.898438 -52.101562 57.140625 -57.59375 C 56.929688 -59.289062 56.722656 -61.023438 56.515625 -62.796875 C 56.304688 -64.566406 56.019531 -66.21875 55.65625 -67.75 C 55.300781 -69.289062 54.765625 -70.523438 54.046875 -71.453125 C 53.328125 -72.378906 52.300781 -72.84375 50.96875 -72.84375 C 49.53125 -72.84375 48.375 -72.414062 47.5 -71.5625 C 46.632812 -70.71875 45.96875 -69.601562 45.5 -68.21875 C 45.039062 -66.832031 44.734375 -65.367188 44.578125 -63.828125 C 44.429688 -62.285156 44.359375 -60.820312 44.359375 -59.4375 C 44.359375 -57.082031 44.597656 -54.25 45.078125 -50.9375 C 45.566406 -47.625 46.171875 -44.082031 46.890625 -40.3125 C 47.609375 -36.539062 48.335938 -32.78125 49.078125 -29.03125 C 49.828125 -25.28125 50.445312 -21.785156 50.9375 -18.546875 C 51.425781 -15.316406 51.671875 -12.570312 51.671875 -10.3125 C 51.671875 -9.445312 51.578125 -8.488281 51.390625 -7.4375 C 51.210938 -6.382812 50.828125 -5.367188 50.234375 -4.390625 C 49.648438 -3.410156 48.78125 -2.613281 47.625 -2 C 46.46875 -1.382812 44.890625 -1.078125 42.890625 -1.078125 C 40.066406 -1.078125 37.640625 -1.832031 35.609375 -3.34375 C 33.585938 -4.863281 31.878906 -6.878906 30.484375 -9.390625 C 29.097656 -11.910156 27.96875 -14.671875 27.09375 -17.671875 C 26.226562 -20.671875 25.535156 -23.660156 25.015625 -26.640625 C 24.503906 -29.617188 24.109375 -32.351562 23.828125 -34.84375 C 23.546875 -37.332031 23.273438 -39.296875 23.015625 -40.734375 C 22.609375 -43.609375 22.25 -46.148438 21.9375 -48.359375 C 21.632812 -50.566406 21.367188 -52.722656 21.140625 -54.828125 C 20.910156 -56.929688 20.640625 -59.238281 20.328125 -61.75 C 19.921875 -64.832031 19.484375 -67.347656 19.015625 -69.296875 C 18.554688 -71.242188 17.632812 -72.785156 16.25 -73.921875 C 15.9375 -71.765625 15.675781 -69.976562 15.46875 -68.5625 C 15.269531 -67.15625 15.09375 -65.910156 14.9375 -64.828125 C 14.78125 -63.753906 14.625 -62.675781 14.46875 -61.59375 C 14.320312 -60.519531 14.144531 -59.25 13.9375 -57.78125 C 13.726562 -56.320312 13.472656 -54.488281 13.171875 -52.28125 C 12.859375 -49.96875 12.546875 -47.242188 12.234375 -44.109375 C 11.929688 -40.984375 11.753906 -37.648438 11.703125 -34.109375 C 11.648438 -30.566406 11.816406 -27.023438 12.203125 -23.484375 C 12.585938 -19.941406 13.289062 -16.617188 14.3125 -13.515625 C 15.34375 -10.410156 16.769531 -7.703125 18.59375 -5.390625 C 20.414062 -3.078125 22.738281 -1.410156 25.5625 -0.390625 Z M 25.5625 0 "/></g></g></g><g fill="#00bf63" fill-opacity="1"><g transform="translate(160.517097, 212.624986)"><g><path d="M 5.390625 0 L 5.390625 -77 L 16.5625 -77 L 16.5625 0 Z M 5.390625 0 "/></g></g></g><g fill="#00bf63" fill-opacity="1"><g transform="translate(182.459894, 212.624986)"><g><path d="M 5.390625 0 L 5.390625 -77 C 5.796875 -77.257812 6.34375 -77.453125 7.03125 -77.578125 C 7.726562 -77.703125 8.335938 -77.765625 8.859375 -77.765625 C 11.160156 -77.765625 13.144531 -77.265625 14.8125 -76.265625 C 16.488281 -75.265625 18.03125 -73.738281 19.4375 -71.6875 C 20.851562 -69.632812 22.34375 -67.039062 23.90625 -63.90625 C 25.46875 -60.78125 27.265625 -57.097656 29.296875 -52.859375 C 31.328125 -48.628906 33.78125 -43.84375 36.65625 -38.5 C 40.5 -31.363281 43.726562 -25.804688 46.34375 -21.828125 C 48.96875 -17.847656 51.101562 -14.960938 52.75 -13.171875 C 54.132812 -11.679688 55.222656 -10.753906 56.015625 -10.390625 C 56.804688 -10.035156 57.378906 -9.929688 57.734375 -10.078125 C 58.097656 -10.234375 58.28125 -10.3125 58.28125 -10.3125 C 58.28125 -19.914062 57.742188 -28.65625 56.671875 -36.53125 C 55.597656 -44.414062 53.984375 -51.664062 51.828125 -58.28125 C 49.671875 -64.90625 46.945312 -71.144531 43.65625 -77 L 59.671875 -77 L 59.671875 0 C 59.265625 0.207031 58.726562 0.382812 58.0625 0.53125 C 57.394531 0.6875 56.773438 0.765625 56.203125 0.765625 C 53.847656 0.765625 51.453125 -0.128906 49.015625 -1.921875 C 46.578125 -3.722656 44.113281 -6.1875 41.625 -9.3125 C 39.132812 -12.445312 36.664062 -16.03125 34.21875 -20.0625 C 31.78125 -24.09375 29.382812 -28.363281 27.03125 -32.875 C 23.332031 -39.90625 20.351562 -45.71875 18.09375 -50.3125 C 15.832031 -54.90625 14.140625 -58.28125 13.015625 -60.4375 C 11.929688 -62.5 10.992188 -64.03125 10.203125 -65.03125 C 9.410156 -66.03125 8.769531 -66.679688 8.28125 -66.984375 C 7.789062 -67.296875 7.414062 -67.425781 7.15625 -67.375 C 6.90625 -67.320312 6.78125 -67.296875 6.78125 -67.296875 C 6.78125 -57.492188 7.316406 -48.613281 8.390625 -40.65625 C 9.472656 -32.695312 11.101562 -25.394531 13.28125 -18.75 C 15.46875 -12.101562 18.175781 -5.851562 21.40625 0 Z M 5.390625 0 "/></g></g></g><g fill="#00bf63" fill-opacity="1"><g transform="translate(224.095728, 212.624986)"><g><path d="M 5.390625 -77 L 16.5625 -77 L 16.5625 -39.96875 C 18.664062 -41.914062 20.5625 -43.679688 22.25 -45.265625 C 23.945312 -46.859375 25.976562 -48.734375 28.34375 -50.890625 C 31.207031 -53.566406 33.859375 -56.289062 36.296875 -59.0625 C 38.742188 -61.832031 40.695312 -64.445312 42.15625 -66.90625 C 43.625 -69.375 44.359375 -71.484375 44.359375 -73.234375 C 44.359375 -74.617188 44.007812 -75.515625 43.3125 -75.921875 C 42.613281 -76.328125 41.90625 -76.554688 41.1875 -76.609375 L 41.1875 -77 L 60.296875 -77 L 24.5625 -45.8125 C 25.125 -46.019531 25.6875 -46.160156 26.25 -46.234375 C 26.820312 -46.316406 27.363281 -46.359375 27.875 -46.359375 C 29.257812 -46.359375 30.410156 -46.0625 31.328125 -45.46875 C 32.253906 -44.875 33.179688 -43.945312 34.109375 -42.6875 C 35.035156 -41.4375 36.140625 -39.8125 37.421875 -37.8125 C 39.835938 -34.164062 42.03125 -30.828125 44 -27.796875 C 45.976562 -24.765625 47.878906 -21.820312 49.703125 -18.96875 C 51.523438 -16.125 53.410156 -13.175781 55.359375 -10.125 C 57.304688 -7.070312 59.4375 -3.695312 61.75 0 L 48.515625 0 C 46.203125 -3.695312 44.082031 -7.070312 42.15625 -10.125 C 40.226562 -13.175781 38.351562 -16.140625 36.53125 -19.015625 C 34.707031 -21.890625 32.804688 -24.84375 30.828125 -27.875 C 28.859375 -30.90625 26.640625 -34.21875 24.171875 -37.8125 C 23.609375 -38.675781 23.09375 -39.363281 22.625 -39.875 C 22.164062 -40.394531 21.453125 -40.65625 20.484375 -40.65625 C 19.765625 -40.65625 19.097656 -40.488281 18.484375 -40.15625 C 17.867188 -39.820312 17.226562 -39.375 16.5625 -38.8125 L 16.5625 0 L 5.390625 0 Z M 5.390625 -77 "/></g></g></g><g fill="#004aad" fill-opacity="1"><g transform="translate(159.428183, 225.47474)"><g><path d="M 4.765625 -4.71875 L 4.765625 0 L 4.09375 0 L 4.09375 -2.09375 L 1.375 -2.09375 L 1.375 0 L 0.703125 0 L 0.703125 -4.71875 L 1.375 -4.71875 L 1.375 -2.6875 L 4.09375 -2.6875 L 4.09375 -4.71875 Z M 4.765625 -4.71875 "/></g></g></g><g fill="#004aad" fill-opacity="1"><g transform="translate(164.895943, 225.47474)"><g><path d="M 4.125 -0.578125 L 4.125 0 L 0.703125 0 L 0.703125 -4.71875 L 4.03125 -4.71875 L 4.03125 -4.125 L 1.375 -4.125 L 1.375 -2.6875 L 3.75 -2.6875 L 3.75 -2.109375 L 1.375 -2.109375 L 1.375 -0.578125 Z M 4.125 -0.578125 "/></g></g></g><g fill="#004aad" fill-opacity="1"><g transform="translate(169.407519, 225.47474)"><g><path d="M 3.703125 -1.171875 L 1.203125 -1.171875 L 0.6875 0 L 0 0 L 2.125 -4.71875 L 2.796875 -4.71875 L 4.9375 0 L 4.234375 0 Z M 3.46875 -1.71875 L 2.453125 -4.03125 L 1.4375 -1.71875 Z M 3.46875 -1.71875 "/></g></g></g><g fill="#004aad" fill-opacity="1"><g transform="translate(174.336582, 225.47474)"><g><path d="M 1.640625 -4.125 L 0.03125 -4.125 L 0.03125 -4.71875 L 3.921875 -4.71875 L 3.921875 -4.125 L 2.3125 -4.125 L 2.3125 0 L 1.640625 0 Z M 1.640625 -4.125 "/></g></g></g><g fill="#004aad" fill-opacity="1"><g transform="translate(178.289264, 225.47474)"><g><path d="M 4.765625 -4.71875 L 4.765625 0 L 4.09375 0 L 4.09375 -2.09375 L 1.375 -2.09375 L 1.375 0 L 0.703125 0 L 0.703125 -4.71875 L 1.375 -4.71875 L 1.375 -2.6875 L 4.09375 -2.6875 L 4.09375 -4.71875 Z M 4.765625 -4.71875 "/></g></g></g><g fill="#004aad" fill-opacity="1"><g transform="translate(183.757024, 225.47474)"><g><path d="M 2.515625 -1.625 L 2.515625 0 L 1.84375 0 L 1.84375 -1.640625 L -0.03125 -4.71875 L 0.6875 -4.71875 L 2.203125 -2.234375 L 3.71875 -4.71875 L 4.390625 -4.71875 Z M 2.515625 -1.625 "/></g></g></g><g fill="#004aad" fill-opacity="1"><g transform="translate(188.113725, 225.47474)"><g><path d="M 2.8125 0.046875 C 2.34375 0.046875 1.914062 -0.0546875 1.53125 -0.265625 C 1.15625 -0.472656 0.859375 -0.757812 0.640625 -1.125 C 0.429688 -1.488281 0.328125 -1.898438 0.328125 -2.359375 C 0.328125 -2.816406 0.429688 -3.226562 0.640625 -3.59375 C 0.859375 -3.957031 1.15625 -4.242188 1.53125 -4.453125 C 1.914062 -4.660156 2.347656 -4.765625 2.828125 -4.765625 C 3.191406 -4.765625 3.523438 -4.703125 3.828125 -4.578125 C 4.140625 -4.453125 4.398438 -4.269531 4.609375 -4.03125 L 4.171875 -3.609375 C 3.816406 -3.984375 3.375 -4.171875 2.84375 -4.171875 C 2.5 -4.171875 2.179688 -4.09375 1.890625 -3.9375 C 1.609375 -3.78125 1.390625 -3.5625 1.234375 -3.28125 C 1.078125 -3.007812 1 -2.703125 1 -2.359375 C 1 -2.015625 1.078125 -1.703125 1.234375 -1.421875 C 1.390625 -1.148438 1.609375 -0.9375 1.890625 -0.78125 C 2.179688 -0.625 2.5 -0.546875 2.84375 -0.546875 C 3.375 -0.546875 3.816406 -0.734375 4.171875 -1.109375 L 4.609375 -0.6875 C 4.398438 -0.445312 4.140625 -0.265625 3.828125 -0.140625 C 3.515625 -0.015625 3.175781 0.046875 2.8125 0.046875 Z M 2.8125 0.046875 "/></g></g></g><g fill="#004aad" fill-opacity="1"><g transform="translate(192.982185, 225.47474)"><g><path d="M 3.703125 -1.171875 L 1.203125 -1.171875 L 0.6875 0 L 0 0 L 2.125 -4.71875 L 2.796875 -4.71875 L 4.9375 0 L 4.234375 0 Z M 3.46875 -1.71875 L 2.453125 -4.03125 L 1.4375 -1.71875 Z M 3.46875 -1.71875 "/></g></g></g><g fill="#004aad" fill-opacity="1"><g transform="translate(197.911249, 225.47474)"><g><path d="M 3.859375 0 L 2.84375 -1.453125 C 2.71875 -1.441406 2.617188 -1.4375 2.546875 -1.4375 L 1.375 -1.4375 L 1.375 0 L 0.703125 0 L 0.703125 -4.71875 L 2.546875 -4.71875 C 3.160156 -4.71875 3.640625 -4.570312 3.984375 -4.28125 C 4.335938 -3.988281 4.515625 -3.585938 4.515625 -3.078125 C 4.515625 -2.710938 4.421875 -2.398438 4.234375 -2.140625 C 4.054688 -1.878906 3.800781 -1.691406 3.46875 -1.578125 L 4.59375 0 Z M 2.53125 -2 C 2.957031 -2 3.28125 -2.09375 3.5 -2.28125 C 3.726562 -2.46875 3.84375 -2.734375 3.84375 -3.078125 C 3.84375 -3.410156 3.726562 -3.664062 3.5 -3.84375 C 3.28125 -4.03125 2.957031 -4.125 2.53125 -4.125 L 1.375 -4.125 L 1.375 -2 Z M 2.53125 -2 "/></g></g></g><g fill="#004aad" fill-opacity="1"><g transform="translate(202.806646, 225.47474)"><g><path d="M 0.703125 -4.71875 L 1.375 -4.71875 L 1.375 0 L 0.703125 0 Z M 0.703125 -4.71875 "/></g></g></g><g fill="#004aad" fill-opacity="1"><g transform="translate(204.894096, 225.47474)"><g><path d="M 4.765625 -4.71875 L 4.765625 0 L 4.203125 0 L 1.375 -3.515625 L 1.375 0 L 0.703125 0 L 0.703125 -4.71875 L 1.265625 -4.71875 L 4.09375 -1.203125 L 4.09375 -4.71875 Z M 4.765625 -4.71875 "/></g></g></g><g fill="#004aad" fill-opacity="1"><g transform="translate(210.361855, 225.47474)"><g><path d="M 3.96875 -2.390625 L 4.625 -2.390625 L 4.625 -0.546875 C 4.382812 -0.347656 4.109375 -0.195312 3.796875 -0.09375 C 3.492188 0 3.171875 0.046875 2.828125 0.046875 C 2.359375 0.046875 1.929688 -0.0546875 1.546875 -0.265625 C 1.160156 -0.472656 0.859375 -0.757812 0.640625 -1.125 C 0.429688 -1.488281 0.328125 -1.898438 0.328125 -2.359375 C 0.328125 -2.816406 0.429688 -3.226562 0.640625 -3.59375 C 0.859375 -3.957031 1.160156 -4.242188 1.546875 -4.453125 C 1.929688 -4.660156 2.363281 -4.765625 2.84375 -4.765625 C 3.226562 -4.765625 3.570312 -4.703125 3.875 -4.578125 C 4.1875 -4.453125 4.445312 -4.273438 4.65625 -4.046875 L 4.25 -3.625 C 3.863281 -3.988281 3.40625 -4.171875 2.875 -4.171875 C 2.519531 -4.171875 2.195312 -4.09375 1.90625 -3.9375 C 1.625 -3.78125 1.398438 -3.5625 1.234375 -3.28125 C 1.078125 -3.007812 1 -2.703125 1 -2.359375 C 1 -2.015625 1.078125 -1.703125 1.234375 -1.421875 C 1.398438 -1.148438 1.625 -0.9375 1.90625 -0.78125 C 2.195312 -0.625 2.519531 -0.546875 2.875 -0.546875 C 3.289062 -0.546875 3.65625 -0.644531 3.96875 -0.84375 Z M 3.96875 -2.390625 "/></g></g></g></svg>